<svg xmlns="http://www.w3.org/2000/svg" width="1024" height="1024" viewBox="0 0 1024 1024">
<defs>
<clipPath id="clipSq"><path d="M 1024.00 512.00 L 1023.93 631.24 L 1023.72 669.32 L 1023.37 696.98 L 1022.88 719.47 L 1022.24 738.75 L 1021.47 755.78 L 1020.55 771.13 L 1019.49 785.16 L 1018.29 798.12 L 1016.95 810.17 L 1015.46 821.46 L 1013.83 832.08 L 1012.04 842.12 L 1010.12 851.63 L 1008.04 860.66 L 1005.81 869.27 L 1003.43 877.48 L 1000.90 885.33 L 998.22 892.83 L 995.37 900.02 L 992.37 906.92 L 989.21 913.53 L 985.88 919.87 L 982.38 925.96 L 978.72 931.81 L 974.88 937.42 L 970.87 942.81 L 966.67 947.99 L 962.29 952.96 L 957.72 957.72 L 952.96 962.29 L 947.99 966.67 L 942.81 970.87 L 937.42 974.88 L 931.81 978.72 L 925.96 982.38 L 919.87 985.88 L 913.53 989.21 L 906.92 992.37 L 900.02 995.37 L 892.83 998.22 L 885.33 1000.90 L 877.48 1003.43 L 869.27 1005.81 L 860.66 1008.04 L 851.63 1010.12 L 842.12 1012.04 L 832.08 1013.83 L 821.46 1015.46 L 810.17 1016.95 L 798.12 1018.29 L 785.16 1019.49 L 771.13 1020.55 L 755.78 1021.47 L 738.75 1022.24 L 719.47 1022.88 L 696.98 1023.37 L 669.32 1023.72 L 631.24 1023.93 L 512.00 1024.00 L 392.76 1023.93 L 354.68 1023.72 L 327.02 1023.37 L 304.53 1022.88 L 285.25 1022.24 L 268.22 1021.47 L 252.87 1020.55 L 238.84 1019.49 L 225.88 1018.29 L 213.83 1016.95 L 202.54 1015.46 L 191.92 1013.83 L 181.88 1012.04 L 172.37 1010.12 L 163.34 1008.04 L 154.73 1005.81 L 146.52 1003.43 L 138.67 1000.90 L 131.17 998.22 L 123.98 995.37 L 117.08 992.37 L 110.47 989.21 L 104.13 985.88 L 98.04 982.38 L 92.19 978.72 L 86.58 974.88 L 81.19 970.87 L 76.01 966.67 L 71.04 962.29 L 66.28 957.72 L 61.71 952.96 L 57.33 947.99 L 53.13 942.81 L 49.12 937.42 L 45.28 931.81 L 41.62 925.96 L 38.12 919.87 L 34.79 913.53 L 31.63 906.92 L 28.63 900.02 L 25.78 892.83 L 23.10 885.33 L 20.57 877.48 L 18.19 869.27 L 15.96 860.66 L 13.88 851.63 L 11.96 842.12 L 10.17 832.08 L 8.54 821.46 L 7.05 810.17 L 5.71 798.12 L 4.51 785.16 L 3.45 771.13 L 2.53 755.78 L 1.76 738.75 L 1.12 719.47 L 0.63 696.98 L 0.28 669.32 L 0.07 631.24 L 0.00 512.00 L 0.07 392.76 L 0.28 354.68 L 0.63 327.02 L 1.12 304.53 L 1.76 285.25 L 2.53 268.22 L 3.45 252.87 L 4.51 238.84 L 5.71 225.88 L 7.05 213.83 L 8.54 202.54 L 10.17 191.92 L 11.96 181.88 L 13.88 172.37 L 15.96 163.34 L 18.19 154.73 L 20.57 146.52 L 23.10 138.67 L 25.78 131.17 L 28.63 123.98 L 31.63 117.08 L 34.79 110.47 L 38.12 104.13 L 41.62 98.04 L 45.28 92.19 L 49.12 86.58 L 53.13 81.19 L 57.33 76.01 L 61.71 71.04 L 66.28 66.28 L 71.04 61.71 L 76.01 57.33 L 81.19 53.13 L 86.58 49.12 L 92.19 45.28 L 98.04 41.62 L 104.13 38.12 L 110.47 34.79 L 117.08 31.63 L 123.98 28.63 L 131.17 25.78 L 138.67 23.10 L 146.52 20.57 L 154.73 18.19 L 163.34 15.96 L 172.37 13.88 L 181.88 11.96 L 191.92 10.17 L 202.54 8.54 L 213.83 7.05 L 225.88 5.71 L 238.84 4.51 L 252.87 3.45 L 268.22 2.53 L 285.25 1.76 L 304.53 1.12 L 327.02 0.63 L 354.68 0.28 L 392.76 0.07 L 512.00 0.00 L 631.24 0.07 L 669.32 0.28 L 696.98 0.63 L 719.47 1.12 L 738.75 1.76 L 755.78 2.53 L 771.13 3.45 L 785.16 4.51 L 798.12 5.71 L 810.17 7.05 L 821.46 8.54 L 832.08 10.17 L 842.12 11.96 L 851.63 13.88 L 860.66 15.96 L 869.27 18.19 L 877.48 20.57 L 885.33 23.10 L 892.83 25.78 L 900.02 28.63 L 906.92 31.63 L 913.53 34.79 L 919.87 38.12 L 925.96 41.62 L 931.81 45.28 L 937.42 49.12 L 942.81 53.13 L 947.99 57.33 L 952.96 61.71 L 957.72 66.28 L 962.29 71.04 L 966.67 76.01 L 970.87 81.19 L 974.88 86.58 L 978.72 92.19 L 982.38 98.04 L 985.88 104.13 L 989.21 110.47 L 992.37 117.08 L 995.37 123.98 L 998.22 131.17 L 1000.90 138.67 L 1003.43 146.52 L 1005.81 154.73 L 1008.04 163.34 L 1010.12 172.37 L 1012.04 181.88 L 1013.83 191.92 L 1015.46 202.54 L 1016.95 213.83 L 1018.29 225.88 L 1019.49 238.84 L 1020.55 252.87 L 1021.47 268.22 L 1022.24 285.25 L 1022.88 304.53 L 1023.37 327.02 L 1023.72 354.68 L 1023.93 392.76 L 1024.00 512.00 Z"/></clipPath>

  <filter id="blurSoft" x="-30%" y="-30%" width="160%" height="160%">
    <feGaussianBlur stdDeviation="18"/>
  </filter>
  <filter id="blurBig" x="-50%" y="-50%" width="200%" height="200%">
    <feGaussianBlur stdDeviation="42"/>
  </filter>
  <filter id="dropGlass" x="-40%" y="-40%" width="180%" height="180%">
    <feDropShadow dx="0" dy="14" stdDeviation="20" flood-color="#000000" flood-opacity="0.45"/>
  </filter>
  <filter id="innerGlow" x="-30%" y="-30%" width="160%" height="160%">
    <feGaussianBlur stdDeviation="10" result="b"/>
    <feComposite in="b" in2="SourceGraphic" operator="over"/>
  </filter>

<linearGradient id="rimGrad" x1="0" y1="0" x2="0" y2="1">
  <stop offset="0" stop-color="#ffffff" stop-opacity="0.55"/>
  <stop offset="0.5" stop-color="#ffffff" stop-opacity="0.06"/>
  <stop offset="1" stop-color="#0a1228" stop-opacity="0.4"/>
</linearGradient><linearGradient id="glossGrad" x1="0" y1="0" x2="1" y2="1">
  <stop offset="0" stop-color="#ffffff" stop-opacity="0.9"/>
  <stop offset="1" stop-color="#ffffff" stop-opacity="0"/>
</linearGradient>
<radialGradient id="bg3" cx="0.5" cy="0.32" r="1.0">
  <stop offset="0" stop-color="#101d3f"/>
  <stop offset="0.5" stop-color="#0a1330"/>
  <stop offset="1" stop-color="#05091b"/>
</radialGradient>
<linearGradient id="ringBlue" x1="0" y1="0" x2="0" y2="1">
  <stop offset="0" stop-color="#bfe0ff"/><stop offset="1" stop-color="#3b82f6"/>
</linearGradient>
<linearGradient id="ringGreen" x1="0" y1="0" x2="0" y2="1">
  <stop offset="0" stop-color="#c7ffe9"/><stop offset="1" stop-color="#10b981"/>
</linearGradient>
<linearGradient id="ringRed" x1="0" y1="0" x2="0" y2="1">
  <stop offset="0" stop-color="#ffd0d0"/><stop offset="1" stop-color="#ef4444"/>
</linearGradient>

</defs>
<g clip-path="url(#clipSq)">

<rect x="0" y="0" width="1024" height="1024" fill="url(#bg3)"/>
<circle cx="512" cy="430" r="300" fill="#1d4ed8" opacity="0.22" filter="url(#blurBig)"/>
<g filter="url(#dropGlass)">
<circle cx="512" cy="512" r="300" fill="none" stroke="#ffffff" stroke-opacity="0.07" stroke-width="78"/><path d="M 512.0 212.0 A 300 300 0 1 1 240.6 384.3" fill="none" stroke="url(#ringRed)" stroke-width="78" stroke-linecap="round"/><circle cx="512" cy="512" r="205" fill="none" stroke="#ffffff" stroke-opacity="0.07" stroke-width="78"/><path d="M 512.0 307.0 A 205 205 0 1 1 338.9 621.8" fill="none" stroke="url(#ringGreen)" stroke-width="78" stroke-linecap="round"/><circle cx="512" cy="512" r="110" fill="none" stroke="#ffffff" stroke-opacity="0.07" stroke-width="78"/><path d="M 512.0 402.0 A 110 110 0 1 1 478.0 616.6" fill="none" stroke="url(#ringBlue)" stroke-width="78" stroke-linecap="round"/>
</g>
<!-- glassy sheen over rings -->
<ellipse cx="430" cy="360" rx="300" ry="180" fill="#ffffff" opacity="0.18" filter="url(#blurSoft)"/>

<path d="M -50 -50 L 760 -50 L 360 560 L -50 360 Z" fill="url(#glossGrad)" opacity="0.5" filter="url(#blurSoft)"/>

</g>
<!-- rim light on the squircle edge -->
<path d="M 1024.00 512.00 L 1023.93 631.24 L 1023.72 669.32 L 1023.37 696.98 L 1022.88 719.47 L 1022.24 738.75 L 1021.47 755.78 L 1020.55 771.13 L 1019.49 785.16 L 1018.29 798.12 L 1016.95 810.17 L 1015.46 821.46 L 1013.83 832.08 L 1012.04 842.12 L 1010.12 851.63 L 1008.04 860.66 L 1005.81 869.27 L 1003.43 877.48 L 1000.90 885.33 L 998.22 892.83 L 995.37 900.02 L 992.37 906.92 L 989.21 913.53 L 985.88 919.87 L 982.38 925.96 L 978.72 931.81 L 974.88 937.42 L 970.87 942.81 L 966.67 947.99 L 962.29 952.96 L 957.72 957.72 L 952.96 962.29 L 947.99 966.67 L 942.81 970.87 L 937.42 974.88 L 931.81 978.72 L 925.96 982.38 L 919.87 985.88 L 913.53 989.21 L 906.92 992.37 L 900.02 995.37 L 892.83 998.22 L 885.33 1000.90 L 877.48 1003.43 L 869.27 1005.81 L 860.66 1008.04 L 851.63 1010.12 L 842.12 1012.04 L 832.08 1013.83 L 821.46 1015.46 L 810.17 1016.95 L 798.12 1018.29 L 785.16 1019.49 L 771.13 1020.55 L 755.78 1021.47 L 738.75 1022.24 L 719.47 1022.88 L 696.98 1023.37 L 669.32 1023.72 L 631.24 1023.93 L 512.00 1024.00 L 392.76 1023.93 L 354.68 1023.72 L 327.02 1023.37 L 304.53 1022.88 L 285.25 1022.24 L 268.22 1021.47 L 252.87 1020.55 L 238.84 1019.49 L 225.88 1018.29 L 213.83 1016.95 L 202.54 1015.46 L 191.92 1013.83 L 181.88 1012.04 L 172.37 1010.12 L 163.34 1008.04 L 154.73 1005.81 L 146.52 1003.43 L 138.67 1000.90 L 131.17 998.22 L 123.98 995.37 L 117.08 992.37 L 110.47 989.21 L 104.13 985.88 L 98.04 982.38 L 92.19 978.72 L 86.58 974.88 L 81.19 970.87 L 76.01 966.67 L 71.04 962.29 L 66.28 957.72 L 61.71 952.96 L 57.33 947.99 L 53.13 942.81 L 49.12 937.42 L 45.28 931.81 L 41.62 925.96 L 38.12 919.87 L 34.79 913.53 L 31.63 906.92 L 28.63 900.02 L 25.78 892.83 L 23.10 885.33 L 20.57 877.48 L 18.19 869.27 L 15.96 860.66 L 13.88 851.63 L 11.96 842.12 L 10.17 832.08 L 8.54 821.46 L 7.05 810.17 L 5.71 798.12 L 4.51 785.16 L 3.45 771.13 L 2.53 755.78 L 1.76 738.75 L 1.12 719.47 L 0.63 696.98 L 0.28 669.32 L 0.07 631.24 L 0.00 512.00 L 0.07 392.76 L 0.28 354.68 L 0.63 327.02 L 1.12 304.53 L 1.76 285.25 L 2.53 268.22 L 3.45 252.87 L 4.51 238.84 L 5.71 225.88 L 7.05 213.83 L 8.54 202.54 L 10.17 191.92 L 11.96 181.88 L 13.88 172.37 L 15.96 163.34 L 18.19 154.73 L 20.57 146.52 L 23.10 138.67 L 25.78 131.17 L 28.63 123.98 L 31.63 117.08 L 34.79 110.47 L 38.12 104.13 L 41.62 98.04 L 45.28 92.19 L 49.12 86.58 L 53.13 81.19 L 57.33 76.01 L 61.71 71.04 L 66.28 66.28 L 71.04 61.71 L 76.01 57.33 L 81.19 53.13 L 86.58 49.12 L 92.19 45.28 L 98.04 41.62 L 104.13 38.12 L 110.47 34.79 L 117.08 31.63 L 123.98 28.63 L 131.17 25.78 L 138.67 23.10 L 146.52 20.57 L 154.73 18.19 L 163.34 15.96 L 172.37 13.88 L 181.88 11.96 L 191.92 10.17 L 202.54 8.54 L 213.83 7.05 L 225.88 5.71 L 238.84 4.51 L 252.87 3.45 L 268.22 2.53 L 285.25 1.76 L 304.53 1.12 L 327.02 0.63 L 354.68 0.28 L 392.76 0.07 L 512.00 0.00 L 631.24 0.07 L 669.32 0.28 L 696.98 0.63 L 719.47 1.12 L 738.75 1.76 L 755.78 2.53 L 771.13 3.45 L 785.16 4.51 L 798.12 5.71 L 810.17 7.05 L 821.46 8.54 L 832.08 10.17 L 842.12 11.96 L 851.63 13.88 L 860.66 15.96 L 869.27 18.19 L 877.48 20.57 L 885.33 23.10 L 892.83 25.78 L 900.02 28.63 L 906.92 31.63 L 913.53 34.79 L 919.87 38.12 L 925.96 41.62 L 931.81 45.28 L 937.42 49.12 L 942.81 53.13 L 947.99 57.33 L 952.96 61.71 L 957.72 66.28 L 962.29 71.04 L 966.67 76.01 L 970.87 81.19 L 974.88 86.58 L 978.72 92.19 L 982.38 98.04 L 985.88 104.13 L 989.21 110.47 L 992.37 117.08 L 995.37 123.98 L 998.22 131.17 L 1000.90 138.67 L 1003.43 146.52 L 1005.81 154.73 L 1008.04 163.34 L 1010.12 172.37 L 1012.04 181.88 L 1013.83 191.92 L 1015.46 202.54 L 1016.95 213.83 L 1018.29 225.88 L 1019.49 238.84 L 1020.55 252.87 L 1021.47 268.22 L 1022.24 285.25 L 1022.88 304.53 L 1023.37 327.02 L 1023.72 354.68 L 1023.93 392.76 L 1024.00 512.00 Z" fill="none" stroke="url(#rimGrad)" stroke-width="3" opacity="0.9"/>
</svg>